<?xml version="1.0" encoding="utf-8"?>
<!-- Generator: Adobe Illustrator 28.0.0, SVG Export Plug-In . SVG Version: 6.00 Build 0)  -->
<svg version="1.1" id="Layer_1" xmlns="http://www.w3.org/2000/svg" xmlns:xlink="http://www.w3.org/1999/xlink" x="0px" y="0px"
	 viewBox="0 0 100 99.9" style="enable-background:new 0 0 100 99.9;" xml:space="preserve">
<style type="text/css">
	.st0{fill:#C12F2F;}
</style>
<path class="st0" d="M60.4,99.5c-3.3-1.9-5.6-0.2-8.8,0.2c-2.2,0.3-3.7-1.8-5.8-0.4c-2.6,0.3-2.9-2.9-4.7-4.2
	c-2.3-1.8-2.1-0.3-3.1-3.8c-8.2-4.8-18.4-5.2-25.3-12.2c-2.9-1-5.2-2.1-7-4.8c-2-1.6-5.8-2.2-5.7-5.3c-0.4-6.5,5.5-9.1,7.7-14.6
	c1.7-5.5,5.2-9.9,9.5-13.6c2.5-8.5,12.4-10.1,17.6-16.5c8.2-13,20.1-30.5,37.7-23c-3.7,2.5-8.2,3-12.2,4.7
	C55,13,50.2,20.8,44.2,27.3c-2.5,0.8-5.4,0.6-6,3.9c-4,5.7-9.8,10.1-13.6,15.9C14,60.6,9.3,72,29.1,78.8c8.6,5.2,18.2,7.2,27.8,9.6
	c10.2-0.2,9.1-6.8,21.5-2.2c5.9,0.7,9.5-4.2,10.9-9.3c-1.1-3.1-2.6-6.3-1.6-9.8c0-1.9-1.4-4.6,0-6.3c4.6-4.4-3.5-13-1.7-21.3
	c-3.1-4.5-15-2.8-17.9,2.1c-1.7,4.4-6.8,3.3-10,5.5c-3.1,1.8-6,4.3-9,6.2c-2.4,3-10.1,1.3-9.4,6.6c0,4.8,2.4,7.1,6.7,8.3
	C58.2,79.7,75.2,67.9,72.8,53c-0.3-2.9-13.1,3.4-6.4-2.4c6.5-8.6,15.2,6,12.9,13.4c-8.8,16.6-37.1,15.6-47.4,0.2
	C21.2,49.6,43.5,51.2,50.2,44.7c4-6.2,10.3-9.1,16.3-13.1C72.5,26,80.1,21,88.4,23.4c16,7.2,12.1,13.4,5.7,26.1c0,3,3.5,5.4,3.7,9.2
	c-2.1,4.7,0,9.8-2,14.2c-1.8,4.8,0.2,12.9-4.2,16.3C82.6,90.8,71.4,100.3,60.4,99.5z"/>
</svg>
