<?xml version="1.0" encoding="utf-8"?>
<!-- AFTER EFFECTS -->
<svg xmlns="http://www.w3.org/2000/svg" xmlns:inkscape="http://www.inkscape.org/namespaces/inkscape" 
     title="AFTER EFFECTS" width="100px" viewBox="0 0 320 312.5">
    <g id="Layer_2_1_-8" transform="matrix(0.41666667,0,0,0.41666667,55,0)">
        <g id="Surfaces">
            <g id="Video_Audio_Surface">
                <g id="Outline_no_shadow-3">
                    <path id="path2194" inkscape:connector-curvature="0" fill="#1f003f" d="M4.001,1.199h495.997C575.203,1.199,636,62,636,137.199
                        v476.799c0,75.2-60.796,136.001-136.002,136.001H4.001c-75.199,0-136.001-60.8-136.001-136.001V137.199
                        C-132,62-71.199,1.199,4.001,1.199z"/>
                </g>
            </g>
        </g>
        <g id="Outlined_Mnemonics_Logos">
            <g id="Ae">
                <path id="path2199" inkscape:connector-curvature="0" fill="#c78df3" d="M176.478,449.201H57.439L33.12,524.717
                    c-0.639,2.88-3.196,4.8-6.076,4.484h-60.163c-3.523,0-4.483-1.92-3.523-5.76L66.4,228.08c0.96-3.201,1.92-6.081,3.201-9.921
                    c1.277-6.719,1.92-13.76,1.92-20.802c-0.316-1.598,0.96-3.196,2.564-3.518c0.316,0,0.633,0,0.96,0h81.918
                    c2.237,0,3.84,0.96,4.156,2.558l116.803,328.003c0.96,3.518,0,5.116-3.201,5.116h-66.882c-2.236,0.321-4.478-1.276-5.116-3.518
                    L176.478,449.201z M76.004,385.515h81.277c-1.92-6.719-4.479-14.715-7.358-23.038c-2.88-8.639-5.76-17.917-8.64-27.516
                    c-3.201-9.925-6.08-19.524-9.282-29.441c-3.196-9.92-6.076-19.203-8.639-28.481c-2.564-8.96-4.8-17.283-7.041-24.963h-0.639
                    c-2.88,13.76-6.403,27.521-10.88,41.282c-4.8,15.358-9.599,31.36-14.72,47.361C85.92,357.039,80.804,372.076,76.004,385.515z"/>
                <path id="path2201" inkscape:connector-curvature="0" fill="#c78df3" d="M467.683,419.761H366.239
                    c1.281,9.915,4.483,19.841,9.921,28.481c5.759,8.639,13.76,15.358,23.364,19.198c12.795,5.438,26.877,8.318,40.955,8
                    c11.202-0.321,22.404-1.281,33.28-3.523c9.921-1.276,19.52-3.839,28.481-7.358c1.599-1.281,2.559-0.643,2.559,2.559v48.96
                    c0,1.281-0.316,2.559-0.639,3.84c-0.638,0.96-1.281,1.603-2.241,2.241c-10.238,4.478-20.797,7.679-31.998,9.599
                    c-15.042,2.88-30.079,4.161-45.437,3.84c-24.324,0-44.8-3.84-61.44-11.198c-15.685-6.719-29.441-17.283-40.321-30.406
                    c-10.243-12.479-17.6-26.556-22.078-41.915c-4.483-15.042-6.72-30.722-6.72-46.724c0-17.278,2.554-34.24,7.996-50.88
                    c5.121-15.998,13.123-30.718,24.003-43.84c10.559-12.8,23.681-23.038,38.718-30.396c15.042-7.363,32.963-9.925,53.439-9.925
                    c16.962-0.318,33.918,2.879,49.604,9.925c13.117,5.76,24.636,14.399,33.597,25.596c8.318,10.881,15.042,23.038,19.203,36.482
                    c4.156,12.8,6.076,25.918,6.076,39.04c0,7.679-0.317,14.399-0.639,20.48c-0.639,6.08-0.96,10.559-1.281,13.438
                    c-0.317,2.241-2.236,4.161-4.479,4.161c-1.919,0-5.438,0.322-10.563,0.639c-5.116,0.644-11.198,0.96-18.555,0.96
                    C483.68,421.037,476.001,419.761,467.683,419.761z M366.239,373.036h67.52c8.323,0,14.399,0,18.239-0.316
                    c2.563-0.321,5.126-0.96,7.363-2.563v-3.197c0-4.16-0.644-8-1.92-11.84c-5.76-17.922-22.722-30.083-41.598-29.441
                    c-17.604-0.96-34.24,8.323-42.562,24.319C369.44,357.361,367.199,365.041,366.239,373.036z"/>
            </g>
        </g>
    </g>
</svg>