<?xml version="1.0" encoding="utf-8"?>
<!--AUDITION-->
<svg xmlns="http://www.w3.org/2000/svg" xmlns:inkscape="http://www.inkscape.org/namespaces/inkscape" id="audition" width="100px" viewBox="0 0 320 312.5">
        <g id="g2285" transform="matrix(0.3900156,0,0,0.39,0,107.5)">
            <path id="path2277" inkscape:connector-curvature="0" fill="#002620" d="M145.278-274.357h529.923
                c80.312,0,145.278,64.959,145.278,145.28v509.444c0,80.316-64.966,145.274-145.278,145.274H145.278
                C64.955,525.641,0,460.682,0,380.367v-509.444C0-209.398,64.955-274.357,145.278-274.357z"/>
            <g id="g2283">
                <path id="path2279" inkscape:connector-curvature="0" fill="#00e3bc" d="M322.238,204.368H195.195l-25.918,80.639
                    c-0.641,3.206-3.519,5.122-6.403,4.8H98.558c-3.842,0-4.805-1.916-3.842-6.081l110.078-316.16
                    c0.964-3.519,1.921-7.039,3.525-11.198c1.598-7.044,2.879-14.4,2.879-21.766c-0.318-1.598,0.958-3.514,2.879-3.837
                    c0.318,0,0.641,0,0.958,0h87.683c2.239,0,4.159,0.963,4.477,2.879L431.359,284.36c0.957,3.852,0,5.446-3.525,5.446h-71.358
                    c-2.239,0.322-4.8-1.282-5.44-3.842L322.238,204.368z M215.034,136.202h86.721c-1.916-7.038-4.8-15.68-8.001-24.634
                    c-3.196-9.287-6.076-19.205-9.276-29.444c-3.519-10.558-6.398-20.797-9.922-31.36c-3.519-10.558-6.398-20.48-9.276-30.403
                    c-2.878-9.6-5.123-18.553-7.678-26.555h-0.641c-3.202,14.716-6.726,29.439-11.526,44.156
                    c-5.116,16.32-10.239,33.603-15.679,50.565C225.596,105.806,220.155,121.808,215.034,136.202z"/>
                <path id="path2281" inkscape:connector-curvature="0" fill="#00e3bc" d="M693.441,20.362V229.96c0,9.287,0,17.283,0.312,24.644
                    c0.323,7.039,0.641,13.441,0.963,18.876c0.641,5.446,0.964,8.642,1.28,12.161c0.318,3.207-0.957,4.487-3.841,4.487h-58.558
                    c-2.878,0.312-5.439-1.281-6.403-3.841c-0.634-2.884-1.275-5.758-1.916-8.642c-0.645-2.238-0.645-4.8-0.645-7.038
                    c-10.874,9.922-24.316,16.96-38.719,21.125c-12.161,3.509-25.279,5.112-38.079,5.112s-25.279-1.603-37.117-5.757
                    c-10.88-3.842-21.119-10.246-29.12-18.887c-8.959-9.6-15.362-20.792-19.199-33.265c-4.8-15.691-7.043-32.006-6.725-48.654V20.685
                    c-0.318-1.921,0.963-4.16,3.523-4.477c0.318,0,0.641,0,0.958,0h65.278c1.921-0.323,4.16,0.957,4.482,3.513
                    c0,0.323,0,0.641,0,0.964v160.642c0,15.034,3.519,26.882,9.917,35.524c6.403,8.632,19.843,13.108,35.205,13.108
                    c8.001,0,15.679-1.271,23.359-4.155c8.001-2.884,15.039-6.403,21.436-11.203V20.362c0-2.239,1.603-3.837,4.8-3.837h65.283
                    c1.598-0.317,3.837,0.958,3.837,2.88C693.441,19.721,693.441,20.044,693.441,20.362L693.441,20.362z"/>
            </g>
        </g>
</svg>