<?xml version="1.0" encoding="utf-8"?>
<!--PREMIER-->
<svg xmlns="http://www.w3.org/2000/svg" xmlns:inkscape="http://www.inkscape.org/namespaces/inkscape" width="100px" viewBox="0 0 409.1 398.9">
        <g transform="matrix(1.000000125 0 0 1.000000125 159.9999625 83)">
            <path class="st0" fill="#00005B" d="M-87.6-83h264.2c40.1,0,72.4,32.4,72.4,72.4v254c0,40.1-32.4,72.4-72.4,72.4H-87.6
                c-40.1,0-72.4-32.4-72.4-72.4v-254C-160-50.6-127.6-83-87.6-83z"/>
            <g>
                <path class="st1" fill="#9999FF" d="M-62.8,196.7V21.3c0-1.2,0.5-1.9,1.7-1.9c2.9,0,5.6,0,9.5-0.2c4.1-0.2,8.4-0.2,13-0.3
                    c4.6-0.2,9.5-0.2,14.8-0.3c5.3-0.2,10.4-0.2,15.5-0.2c14,0,25.6,1.7,35.1,5.3c8.5,2.9,16.4,7.7,22.8,14
                    c5.5,5.5,9.7,12.1,12.4,19.4c2.6,7.2,3.9,14.5,3.9,22.2c0,14.7-3.4,26.8-10.2,36.3s-16.4,16.7-27.4,20.8
                    c-11.6,4.3-24.4,5.8-38.4,5.8c-4.1,0-6.8,0-8.5-0.2c-1.7-0.2-4.1-0.2-7.3-0.2v54.7c0.2,1.2-0.7,2.2-1.9,2.4h-33.1
                    C-62.2,199-62.8,198.3-62.8,196.7L-62.8,196.7z M-25.7,52.4v57.3c2.4,0.2,4.6,0.3,6.6,0.3h9c6.6,0,13.3-1,19.6-3.1
                    c5.5-1.5,10.2-4.8,14-9c3.6-4.3,5.3-10.1,5.3-17.6c0.2-5.3-1.2-10.6-3.9-15.2c-2.9-4.4-7-7.8-11.9-9.7C6.7,52.9-0.1,51.8-7.1,52
                    c-4.4,0-8.4,0-11.6,0.2C-22.1,52-24.5,52.2-25.7,52.4L-25.7,52.4z"/>
                <path class="st1" fill="#9999FF" d="M89.9,62.2h29.8c1.7,0,3.1,1.2,3.6,2.7c0.5,1.4,0.9,2.7,1,4.3c0.3,1.7,0.7,3.6,0.9,5.3
                    c0.2,1.9,0.3,3.9,0.3,6.1c5.1-6,11.3-10.9,18.2-14.7c7.8-4.4,16.9-6.6,25.9-6.6c1.2-0.2,2.2,0.7,2.4,1.9v33.9
                    c0,1.4-0.9,1.9-2.7,1.9c-6.1-0.2-12.4,0.3-18.4,1.7c-4.9,1-9.7,2.6-14.3,4.6c-3.2,1.5-6.3,3.6-8.7,6.3v86.9c0,1.7-0.7,2.4-2.2,2.4
                    H92.1c-1.4,0.2-2.6-0.7-2.7-2v-95.1c0-4.1,0-8.4-0.2-12.8s-0.2-8.9-0.3-13.3c0-3.9-0.3-7.7-0.7-11.6c-0.2-0.9,0.3-1.7,1.2-1.9
                    C89.4,62.1,89.7,62.1,89.9,62.2L89.9,62.2z"/>
            </g>
        </g>
</svg>