<?xml version="1.0" encoding="utf-8"?>
<!--STABLE DIFFUSION-->
<svg xmlns="http://www.w3.org/2000/svg" xmlns:inkscape="http://www.inkscape.org/namespaces/inkscape" width="100px" viewBox="0 0 240 234">
        <path fill="#141414" d="M42.5,0h155C221,0,240,19,240,42.5v149c0,23.5-19,42.5-42.5,42.5h-155C19,234,0,215,0,191.5v-149
            C0,19,19,0,42.5,0z"/>
        <path fill="#280010" d="M142.539,0.838c0.789,2.937,1.571,5.883,4.424,7.635c0.589,0.362,1.115,0.823,1.695,1.199
            c1.98,1.283,3.352,3.008,3.914,5.324c0.831,3.428,1.799,6.832,2.439,10.296c1.164,6.3,1.261,12.686,1.14,19.075
            c-0.111,5.871-0.331,11.743-0.269,17.612c0.026,2.446,0.561,4.905,1.062,7.317c0.17,0.819,0.805,1.681,1.468,2.233
            c2.141,1.783,4.712,0.672,5.341-2.305c1.039-4.918,0.424-9.882,0.255-14.827c-0.19-5.538-0.563-11.072,0.573-16.568
            c0.913-4.416,3.202-7.447,7.896-8.203c0.61-0.098,1.205-0.294,1.812-0.414c2.646-0.525,4.745-1.823,6.027-4.265
            c0.762-1.452,1.432-2.955,2.26-4.367c1.026-1.749,2.073-3.504,3.302-5.11c0.883-1.153,1.998-1.234,3.355-0.639
            c2.416,1.06,3.887,2.988,4.872,5.356c1.68,4.039,2.112,8.319,2.37,12.62c0.319,5.314,0.449,10.641,0.892,15.944
            c0.166,1.991,0.836,3.984,1.547,5.874c0.626,1.664,2.36,2.433,4.016,2.169c1.232-0.196,2.078-1.36,2.294-3.224
            c0.084-0.723,0.18-1.464,0.11-2.181c-0.447-4.64-1.01-9.27-1.391-13.915c-0.297-3.624-0.482-7.264-0.526-10.9
            c-0.021-1.751,0.486-3.474,1.813-4.797c1.28-1.276,2.659-1.248,3.707,0.204c0.718,0.995,1.311,2.097,1.847,3.205
            c1.635,3.385,3.263,6.773,5.927,9.508c1.933,1.985,3.905,3.932,5.869,5.887c2.318,2.307,3.424,5.112,3.462,8.358
            c0.019,1.641,0.127,3.29,0.015,4.923c-0.516,7.527-1.155,15.046-1.628,22.575c-0.249,3.963-0.394,7.944-0.302,11.911
            c0.052,2.229,0.517,4.49,1.098,6.656c0.702,2.617,2.993,3.717,5.232,2.777c1.226-0.515,1.957-1.508,2.381-2.715
            c0.85-2.42,0.977-4.955,0.755-7.459c-0.612-6.896-1.316-13.784-2.067-20.667c-0.653-5.987-1.209-11.973-0.74-18
            c0.317-4.082,1.21-7.98,3.606-11.426c1.412-2.031,2.777-4.096,4.123-6.173c-4.871-17.991-21.232-31.217-40.752-31.335
            C180.831,0.004,163.9,0.002,146.969,0c-1.204,0-2.408,0.015-3.611,0.014C142.796,0.014,142.365,0.19,142.539,0.838z"/>
        <path fill="#4C4C4C" d="M85.762,167.5c-5.939,0-11.43-0.616-16.277-1.569c-4.847-0.953-8.909-2.353-12.355-3.922
            c-0.953-0.476-1.261-1.401-1.261-2.661v-19.107c0-0.476,0.168-0.616,0.476-0.953c0.168-0.168,0.616-0.168,0.953,0.168
            c4.539,2.83,9.245,4.847,14.232,6.247c5.015,1.401,9.861,2.045,14.708,2.045c6.107,0,10.478-0.953,13.139-2.83
            s3.922-4.23,3.922-7.032c0-1.877-0.476-3.446-1.261-4.847c-0.953-1.401-2.353-2.83-4.539-4.23c-2.185-1.401-5.015-2.83-8.769-4.23
            l-7.984-3.446c-6.584-2.83-11.57-5.799-15.325-8.909c-3.754-3.11-6.247-6.556-7.508-10.142c-1.401-3.586-2.185-7.508-2.185-11.739
            c0-5.799,1.401-11.122,4.23-15.661c2.97-4.707,7.032-8.461,12.831-11.122c5.631-2.661,12.831-4.062,21.292-4.062
            c5.015,0,9.861,0.308,14.4,0.953c4.37,0.616,7.984,1.709,10.646,2.97c0.784,0.476,1.093,1.093,1.093,2.045v18.154
            c0,0.168-0.168,0.476-0.476,0.616c-0.168,0.168-0.616,0.168-0.953-0.168c-3.138-1.709-7.032-2.97-11.122-4.062
            c-4.23-0.616-8.769-1.093-13.307-1.093c-2.97,0-5.799,0.168-7.816,0.784c-2.185,0.616-3.922,1.261-5.155,2.045
            c-1.261,0.784-2.353,1.877-2.97,2.97c-0.616,1.261-0.953,2.493-0.953,3.754c0,1.709,0.476,3.278,1.401,4.539
            c0.953,1.401,2.661,2.661,4.847,4.062c2.185,1.401,5.323,2.97,9.245,4.707l5.939,2.185c7.032,2.97,12.523,5.939,16.445,9.245
            c3.922,3.278,6.724,6.724,8.293,10.646c1.569,3.922,2.353,7.816,2.353,12.355c0,6.247-1.709,11.907-5.015,16.585
            c-3.446,4.707-7.984,8.461-13.924,10.954C101.115,166.239,93.915,167.5,85.762,167.5z"/>
        <path fill="#4C4C4C" d="M166.909,167.496c-5.858,0.079-11.716-1.108-17.02-3.562c-4.987-2.296-9.104-6.096-11.954-10.766
            c-2.929-4.829-4.354-10.846-4.354-18.05c-0.079-5.858,1.425-11.637,4.354-16.704c3.008-5.146,7.362-9.421,12.587-12.271
            c5.542-3.087,12.191-4.592,20.029-4.592c0.396,0,0.95,0,1.662,0.079c0.712,0.079,1.504,0.079,2.454,0.158V76.773
            c0-0.554,0.238-0.871,0.792-0.871h16.07c0.396-0.079,0.712,0.237,0.792,0.554c0,0.079,0,0.158,0,0.158v75.365
            c0,1.425,0.079,3.008,0.158,4.75c0.158,1.662,0.238,3.246,0.317,4.592c0,0.554-0.237,1.029-0.792,1.267
            c-4.117,1.742-8.471,3.008-12.904,3.8C175.143,167.1,171.026,167.496,166.909,167.496z M174.668,151.663v-34.833
            c-0.712-0.158-1.425-0.317-2.137-0.396c-0.871-0.079-1.742-0.158-2.612-0.158c-3.087,0-6.175,0.633-8.946,2.058
            c-2.692,1.346-4.987,3.325-6.729,5.858c-1.742,2.533-2.612,5.937-2.612,10.054c-0.079,2.771,0.396,5.542,1.346,8.154
            c0.792,2.137,1.979,4.037,3.562,5.621c1.504,1.425,3.325,2.533,5.383,3.167c2.137,0.712,4.354,1.029,6.571,1.029
            c1.187,0,2.296-0.079,3.325-0.158C172.847,152.138,173.797,151.98,174.668,151.663z"/>
</svg>